<svg xmlns="http://www.w3.org/2000/svg" viewBox="0 0 64 64">
  <circle cx="32" cy="34" r="24" fill="#ffb23f"/>
  <path d="M15 24 17 7l14 13H15z" fill="#ffb23f"/>
  <path d="M49 24 47 7 33 20h16z" fill="#ffb23f"/>
  <path d="M20 20 18 11l8 8z" fill="#ffd18a"/>
  <path d="M44 20 46 11l-8 8z" fill="#ffd18a"/>
  <circle cx="23" cy="34" r="4" fill="#1f2937"/>
  <circle cx="41" cy="34" r="4" fill="#1f2937"/>
  <path d="M30 42h4l-2 3z" fill="#1f2937"/>
  <path d="M23 45c3 6 15 6 18 0" fill="none" stroke="#1f2937" stroke-width="3" stroke-linecap="round"/>
  <path d="M8 39h10M8 45h10M46 39h10M46 45h10" stroke="#1f2937" stroke-width="2.5" stroke-linecap="round"/>
</svg>
